<?xml version="1.0" encoding="UTF-8"?>
<svg width="300" height="100" version="1.1" viewBox="0 0 79.375 26.458" xmlns="http://www.w3.org/2000/svg">
 <defs>
  <filter id="filter396" x="0" y="0" width="1" height="1" color-interpolation-filters="sRGB">
   <feColorMatrix result="color2" values="1 0 0 0 0 0 1 0 0 0 0 0 1 0 0 -0.21 -0.72 -0.07 2 0 "/>
  </filter>
  <filter id="filter1121" x="0" y="0" width="1" height="1" color-interpolation-filters="sRGB">
   <feColorMatrix result="color1" type="hueRotate" values="180"/>
   <feColorMatrix result="fbSourceGraphic" values="1 0 0 0 0 0 1 0 0 0 0 0 1 0 0 -0.21 -0.72 -0.07 1 0 "/>
   <feColorMatrix in="fbSourceGraphic" result="fbSourceGraphicAlpha" values="0 0 0 -1 0 0 0 0 -1 0 0 0 0 -1 0 0 0 0 1 0"/>
   <feColorMatrix in="fbSourceGraphic" result="color2" values="-1 0 0 0 1 0 -1 0 0 1 0 0 -1 0 1 -0.21 -0.72 -0.07 1 0 "/>
  </filter>
 </defs>
 <path transform="translate(-1.3545e-6 -30.604)" d="m40.168 51.579v1.1245h-1.356c-0.33076 0-0.59119 0.0951-0.78083 0.28474-0.18523 0.18522-0.2775 0.44335-0.2775 0.77411v1.5214c0 0.29989 0.08997 0.54007 0.27078 0.72089 0.18082 0.18082 0.42151 0.2713 0.7214 0.2713h0.29766c0.14995 0 0.33271-0.0308 0.5488-0.0925 0.22051-0.0661 0.43454-0.16766 0.64182-0.30438l0.06615 0.33073h1.0253v-4.6307zm4.7299 0v0.92604h1.9182c0.26461 0 0.39688 0.13227 0.39688 0.39688v0.13229c0 0.26461-0.13226 0.39739-0.39688 0.39739h-1.2568v0.92604h1.3891c0.26461 0 0.39688 0.13227 0.39688 0.39688v0.26458c0 0.10143-0.03076 0.18269-0.0925 0.24443-0.05733 0.0573-0.13679 0.0863-0.23823 0.0863-0.48071 0-1.2082-0.0331-2.1828-0.0992v0.89297c0.89526 0.0882 1.7109 0.13229 2.4474 0.13229 0.4322 0 0.75005-0.10151 0.95291-0.30437 0.20287-0.20287 0.30437-0.5202 0.30437-0.9524v-0.0661c0-0.18081-0.02204-0.33974-0.06615-0.47645-0.1279-0.37928-0.37038-0.61715-0.7276-0.71417 0.19846-0.0661 0.35686-0.18099 0.47594-0.34417 0.12348-0.16758 0.18552-0.38393 0.18552-0.64854 0-0.40132-0.10151-0.69892-0.30437-0.89296-0.20287-0.19846-0.52072-0.29766-0.95291-0.29766zm4.1016 0v0.92604h1.8521c0.26461 0 0.39688 0.13227 0.39688 0.39688v0.33072l-2.3812 1.7203v1.2568h3.5719v-0.92604h-2.2159l1.4221-1.0253c0.11466-0.0838 0.22079-0.16787 0.31781-0.25166 0.31753-0.27343 0.47594-0.59769 0.47594-0.97255v-0.13229c0-0.46307-0.1056-0.79783-0.31729-1.0051-0.20728-0.21169-0.54256-0.31781-1.0056-0.31781zm-15.017 1.0583c-0.14994 0-0.33501 0.0331-0.55552 0.0992-0.2161 0.0617-0.42783 0.16094-0.6351 0.29766l-0.06615-0.33073h-1.0258v3.5062h1.1581v-2.4804c0.30871-0.0882 0.56222-0.1323 0.76068-0.1323h0.03307c0.06615 0 0.12126 0.0221 0.16536 0.0661 0.0441 0.0441 0.06615 0.0992 0.06615 0.16536v2.3812h1.1576v-2.4804c0.30871-0.0882 0.56222-0.1323 0.76068-0.1323h0.03307c0.06615 0 0.12126 0.0221 0.16536 0.0661 0.0441 0.0441 0.06615 0.0992 0.06615 0.16536v2.3812h1.1581v-2.5797c0-0.29989-0.09048-0.54059-0.2713-0.72141-0.18082-0.18081-0.42151-0.2713-0.7214-0.2713h-0.06615c-0.18523 0-0.39695 0.0331-0.6351 0.0992-0.23374 0.0617-0.45187 0.16094-0.65474 0.29766-0.19405-0.26461-0.4696-0.39688-0.82682-0.39688zm10.287 0c-0.41456 0-0.81135 0.16533-1.1906 0.4961l-0.06615-0.42995h-1.0258v3.5062h1.1581v-2.3482c0.29548-0.13231 0.58206-0.19844 0.8599-0.19844h0.56224v-1.0258zm12.569 0c-0.41456 0-0.81135 0.16533-1.1906 0.4961l-0.06615-0.42995h-1.0253v3.5062h1.1576v-2.3482c0.29548-0.13231 0.58206-0.19844 0.8599-0.19844h0.56224v-1.0258zm-44.388 0.0662 1.0914 3.5062h1.2237l0.66146-2.1167 0.66146 2.1167h1.2242l1.0253-3.2938 1.0253 3.2938h1.2237l0.66146-2.1167 0.66198 2.1167h1.2237l1.0253-3.2938 1.0253 3.2938h1.2237l0.66198-2.1167 0.66146 2.1167h1.2237l1.0914-3.5062h-1.2568l-0.59531 2.1172-0.59531-2.1172h-1.0588l-0.59531 2.1172-0.59531-2.1172h-2.3812l-0.59531 2.1172-0.59583-2.1172h-1.0583l-0.59531 2.1172-0.59531-2.1172h-2.3812l-0.59583 2.1172-0.59531-2.1172h-1.0583l-0.59531 2.1172-0.59531-2.1172zm45.149 0v2.5802c0 0.29989 0.09048 0.54007 0.2713 0.72089 0.18082 0.18082 0.42151 0.2713 0.7214 0.2713h0.29766c0.14995 0 0.33271-0.0308 0.5488-0.0925 0.22051-0.0661 0.43454-0.16766 0.64182-0.30438l0.06615 0.33073h1.0253v-3.5062h-1.1576v2.481c-0.29548 0.0882-0.56001 0.1323-0.79375 0.1323h-0.23151c-0.06615 0-0.12126-0.0221-0.16536-0.0662-0.0441-0.0441-0.06615-0.0992-0.06615-0.16537v-2.3818zm-18.423 0.89348h0.99219v1.5875c-0.29548 0.0882-0.56001 0.1323-0.79375 0.1323h-0.23151c-0.06615 0-0.12126-0.0221-0.16536-0.0662-0.0441-0.0441-0.06614-0.0992-0.06614-0.16537v-1.2237c0-0.17641 0.08818-0.26459 0.26458-0.26459zm-9.1953 1.6206v0.99218h1.1906v-0.99218zm22.856 0v0.99218h1.1906v-0.99218z" fill="#aeaeae" filter="url(#filter396)" stroke-width=".26458"/>
 <path transform="translate(-1.3545e-6 -30.604)" d="m51.042 31.391c-0.554 0-0.99994 0.44594-0.99994 0.99994v14.592c0 0.554 0.44594 1.0005 0.99994 1.0005h25.791c0.554 0 0.99994-0.44646 0.99994-1.0005v-14.592c0-0.554-0.44594-0.99994-0.99994-0.99994zm1.4252 1.0485h7.029c1.3506 0 2.3431 0.30998 2.9771 0.93017 0.63397 0.60641 0.95085 1.5369 0.95085 2.791 0 0.8269-0.19288 1.5025-0.57878 2.0262-0.37211 0.50993-0.86861 0.86814-1.4888 1.0749 1.1163 0.3032 1.8746 1.0472 2.2743 2.2324 0.13782 0.42724 0.2067 0.92374 0.2067 1.4888v0.2067c0 1.3506-0.31688 2.3426-0.95085 2.9766-0.63397 0.63396-1.6265 0.95084-2.9771 0.95084-2.3016 0-4.8514-0.13777-7.6491-0.41341v-2.7905c3.0458 0.20673 5.3201 0.31006 6.8223 0.31006 0.31698 0 0.56498-0.0896 0.74414-0.26872 0.19295-0.19293 0.28939-0.44782 0.28939-0.76481v-0.82734c0-0.82691-0.41332-1.2402-1.2402-1.2402h-4.3413v-2.8939h3.9279c0.82691 0 1.2402-0.41384 1.2402-1.2408v-0.41341c0-0.82692-0.41332-1.2402-1.2402-1.2402h-5.9955zm12.817 0h6.6156c1.4471 0 2.4942 0.33065 3.1419 0.99218 0.66153 0.64775 0.99219 1.6954 0.99219 3.1424v0.41341c0 1.1715-0.49598 2.1846-1.4883 3.0391-0.3032 0.26186-0.63386 0.52362-0.99219 0.78548l-4.4447 3.2045h6.9252v2.8939h-11.163v-3.9274l7.4424-5.3754v-1.0335c0-0.82692-0.41384-1.2402-1.2408-1.2402h-5.7883zm-63.743 5.1e-4v14.471h3.7212v-8.0626l2.8944 5.1682h2.8939l2.8944-5.1682v8.0626h3.7212v-14.471h-3.9279l-4.1346 7.6492-4.1346-7.6492zm18.606 0v14.471h8.0626c1.5574 0 2.7358-0.39954 3.5352-1.1989 0.81313-0.81313 1.2196-1.9985 1.2196-3.5558v-4.9615c0-1.5574-0.40643-2.7358-1.2196-3.5352-0.79935-0.81314-1.9778-1.2196-3.5352-1.2196zm14.884 0v14.471h3.7212v-4.3413h2.8944l2.3771 4.3413h4.0313l-2.5838-4.548c0.82691-0.20673 1.4262-0.62694 1.7983-1.2609 0.38589-0.63397 0.57878-1.5231 0.57878-2.667v-1.8604c0-1.4471-0.33066-2.4947-0.99219-3.1424-0.64775-0.66153-1.6953-0.99219-3.1424-0.99219zm-11.163 2.8944h3.5145c1.2404 0 1.8604 0.61998 1.8604 1.8604v4.9615c0 1.2404-0.61998 1.8604-1.8604 1.8604h-3.5145zm14.884 0h4.1346c0.82691 0 1.2402 0.41332 1.2402 1.2402v1.8604c0 0.8269-0.41332 1.2402-1.2402 1.2402h-4.1346z" filter="url(#filter1121)" stroke-linecap="square" stroke-linejoin="round" stroke-miterlimit="0" stroke-opacity=".1" stroke-width=".2"/>
</svg>
