<?xml version="1.0" encoding="UTF-8"?>
<svg width="120" height="120" version="1.1" viewBox="0 0 31.75 31.75" xmlns="http://www.w3.org/2000/svg">
 <defs>
  <filter id="filter1121" x="0" y="0" width="1" height="1" color-interpolation-filters="sRGB">
   <feColorMatrix result="color1" type="hueRotate" values="180"/>
   <feColorMatrix result="fbSourceGraphic" values="1 0 0 0 0 0 1 0 0 0 0 0 1 0 0 -0.21 -0.72 -0.07 1 0 "/>
   <feColorMatrix in="fbSourceGraphic" result="fbSourceGraphicAlpha" values="0 0 0 -1 0 0 0 0 -1 0 0 0 0 -1 0 0 0 0 1 0"/>
   <feColorMatrix in="fbSourceGraphic" result="color2" values="-1 0 0 0 1 0 -1 0 0 1 0 0 -1 0 1 -0.21 -0.72 -0.07 1 0 "/>
  </filter>
 </defs>
 <rect y="-.00016667" width="31.75" height="31.75" stroke-linecap="square" stroke-linejoin="round" stroke-miterlimit="0" stroke-opacity=".1" stroke-width=".2"/>
 <path transform="matrix(.4 0 0 .40001 -1.6348e-6 12.241)" d="m51.042 0.787c-0.554 0-0.99994 0.44594-0.99994 0.99994v14.592c0 0.554 0.44594 1.0005 0.99994 1.0005h25.791c0.554 0 0.99994-0.44646 0.99994-1.0005v-14.592c0-0.554-0.44594-0.99994-0.99994-0.99994zm1.4252 1.0485h7.029c1.3506 0 2.3431 0.30998 2.9771 0.93017 0.63397 0.60641 0.95085 1.5369 0.95085 2.791 0 0.8269-0.19288 1.5025-0.57878 2.0262-0.37211 0.50993-0.86861 0.86814-1.4888 1.0749 1.1163 0.3032 1.8746 1.0472 2.2743 2.2324 0.13782 0.42724 0.2067 0.92374 0.2067 1.4888v0.2067c0 1.3506-0.31688 2.3426-0.95085 2.9766-0.63397 0.63396-1.6265 0.95084-2.9771 0.95084-2.3016 0-4.8514-0.13777-7.6491-0.41341v-2.7905c3.0458 0.20673 5.3201 0.31006 6.8223 0.31006 0.31698 0 0.56498-0.0896 0.74414-0.26872 0.19295-0.19293 0.28939-0.44782 0.28939-0.76481v-0.82734c0-0.82691-0.41332-1.2402-1.2402-1.2402h-4.3413v-2.8939h3.9279c0.82691 0 1.2402-0.41384 1.2402-1.2408v-0.41341c0-0.82692-0.41332-1.2402-1.2402-1.2402h-5.9955zm12.817 0h6.6156c1.4471 0 2.4942 0.33065 3.1419 0.99218 0.66153 0.64775 0.99219 1.6954 0.99219 3.1424v0.41341c0 1.1715-0.49598 2.1846-1.4883 3.0391-0.3032 0.26186-0.63386 0.52362-0.99219 0.78548l-4.4447 3.2045h6.9252v2.8939h-11.163v-3.9274l7.4424-5.3754v-1.0335c0-0.82692-0.41384-1.2402-1.2408-1.2402h-5.7883zm-63.743 5.1e-4v14.471h3.7212v-8.0626l2.8944 5.1682h2.8939l2.8944-5.1682v8.0626h3.7212v-14.471h-3.9279l-4.1346 7.6492-4.1346-7.6492zm18.606 0v14.471h8.0626c1.5574 0 2.7358-0.39954 3.5352-1.1989 0.81313-0.81313 1.2196-1.9985 1.2196-3.5558v-4.9615c0-1.5574-0.40643-2.7358-1.2196-3.5352-0.79935-0.81314-1.9778-1.2196-3.5352-1.2196zm14.884 0v14.471h3.7212v-4.3413h2.8944l2.3771 4.3413h4.0313l-2.5838-4.548c0.82691-0.20673 1.4262-0.62694 1.7983-1.2609 0.38589-0.63397 0.57878-1.5231 0.57878-2.667v-1.8604c0-1.4471-0.33066-2.4947-0.99219-3.1424-0.64775-0.66153-1.6953-0.99219-3.1424-0.99219zm-11.163 2.8944h3.5145c1.2404 0 1.8604 0.61998 1.8604 1.8604v4.9615c0 1.2404-0.61998 1.8604-1.8604 1.8604h-3.5145zm14.884 0h4.1346c0.82691 0 1.2402 0.41332 1.2402 1.2402v1.8604c0 0.8269-0.41332 1.2402-1.2402 1.2402h-4.1346z" filter="url(#filter1121)" stroke-linecap="square" stroke-linejoin="round" stroke-miterlimit="0" stroke-opacity=".1" stroke-width=".5"/>
</svg>
